<?xml version="1.0" encoding="UTF-8" standalone="no"?>
<svg
   viewBox="0 0 1039.3709 328.43673"
   width="275.00024mm"
   height="86.89888mm"
   version="1.1"
   id="svg7"
   xmlns="http://www.w3.org/2000/svg"
   xmlns:svg="http://www.w3.org/2000/svg">
  <desc
     id="desc1">bridge base.dxf - scale = 1.000000, origin = (0.000000, 0.000000), method = manual</desc>
  <defs
     id="defs4">
    <marker
       id="DistanceX"
       orient="auto"
       refX="0"
       refY="0"
       style="overflow:visible">
      <path
         d="M 3,-3 -3,3 M 0,-5 V 5"
         style="stroke:#000000;stroke-width:0.5"
         id="path1" />
    </marker>
    <pattern
       id="Hatch"
       patternUnits="userSpaceOnUse"
       width="8"
       height="8"
       x="0"
       y="0">
      <path
         d="M8 4 l-4,4"
         stroke="#000000"
         stroke-width="0.25"
         linecap="square"
         id="path2" />
      <path
         d="M6 2 l-4,4"
         stroke="#000000"
         stroke-width="0.25"
         linecap="square"
         id="path3" />
      <path
         d="M4 0 l-4,4"
         stroke="#000000"
         stroke-width="0.25"
         linecap="square"
         id="path4" />
    </pattern>
    <symbol
       id="*MODEL_SPACE" />
    <symbol
       id="*PAPER_SPACE" />
  </defs>
  <g
     id="g7"
     transform="translate(1039.371,-1136.5197)">
    <path
       d="m -60.00047,1319.0708 v -9.4488 h 37.79525 v 9.4488 z"
       style="vector-effect:non-scaling-stroke;fill:none;stroke:#ff0000;stroke-width:1;stroke-dasharray:none;-inkscape-stroke:hairline;stroke-opacity:1"
       id="path5-6" />
    <path
       d="m -379.05559,1319.0708 v -9.4488 h 37.79528 v 9.4488 z"
       style="vector-effect:non-scaling-stroke;fill:none;stroke:#ff0000;stroke-width:1;stroke-dasharray:none;-inkscape-stroke:hairline;stroke-opacity:1"
       id="path6-6" />
    <path
       d="m -698.11071,1319.0708 v -9.4488 h 37.79528 v 9.4488 z"
       style="vector-effect:non-scaling-stroke;fill:none;stroke:#ff0000;stroke-width:1;stroke-dasharray:none;-inkscape-stroke:hairline;stroke-opacity:1"
       id="path7-4" />
    <path
       d="m -1017.1658,1319.0708 v -9.4488 h 37.79525 v 9.4488 z"
       style="vector-effect:non-scaling-stroke;fill:none;stroke:#ff0000;stroke-width:1;stroke-dasharray:none;-inkscape-stroke:hairline;stroke-opacity:1"
       id="path8" />
    <path
       d="m -91.65355,1320.2047 h 9.44882 v 18.8976 h -9.44882 z"
       style="vector-effect:non-scaling-stroke;fill:none;stroke:#ff0000;stroke-width:1;stroke-dasharray:none;-inkscape-stroke:hairline;stroke-opacity:1"
       id="path9" />
    <path
       d="m -264.75591,1320.2047 h 9.44882 v 18.8976 h -9.44882 z"
       style="vector-effect:non-scaling-stroke;fill:none;stroke:#ff0000;stroke-width:1;stroke-dasharray:none;-inkscape-stroke:hairline;stroke-opacity:1"
       id="path10" />
    <path
       d="m -437.85827,1320.2047 h 9.44882 v 18.8976 h -9.44882 z"
       style="vector-effect:non-scaling-stroke;fill:none;stroke:#ff0000;stroke-width:1;stroke-dasharray:none;-inkscape-stroke:hairline;stroke-opacity:1"
       id="path11" />
    <path
       d="m -610.96063,1320.2047 h 9.44882 v 18.8976 h -9.44882 z"
       style="vector-effect:non-scaling-stroke;fill:none;stroke:#ff0000;stroke-width:1;stroke-dasharray:none;-inkscape-stroke:hairline;stroke-opacity:1"
       id="path12" />
    <path
       d="m -784.063,1320.2047 h 9.44882 v 18.8976 h -9.44882 z"
       style="vector-effect:non-scaling-stroke;fill:none;stroke:#ff0000;stroke-width:1;stroke-dasharray:none;-inkscape-stroke:hairline;stroke-opacity:1"
       id="path13" />
    <path
       d="m -957.16536,1320.2047 h 9.44882 v 18.8976 h -9.44882 z"
       style="vector-effect:non-scaling-stroke;fill:none;stroke:#ff0000;stroke-width:1;stroke-dasharray:none;-inkscape-stroke:hairline;stroke-opacity:1"
       id="path14" />
    <path
       d="M 5.0000001e-7,1307.7322 A 3.779528,3.779528 0 0 0 -3.7794995,1303.9527 H -1035.5906 a 3.779528,3.779528 0 0 0 -3.7795,3.7795 v 33.2598 a 3.779528,3.779528 0 0 0 3.7795,3.7796 h 52.19534 a 18.897638,18.897638 0 0 1 13.11448,5.2913 18.897638,18.897638 0 0 0 13.11447,5.2913 h 874.9625 a 18.897638,18.897638 0 0 0 13.11447,-5.2913 18.897638,18.897638 0 0 1 13.11447,-5.2913 H -3.7794995 A 3.779528,3.779528 0 0 0 4.9999996e-7,1340.992 Z"
       style="vector-effect:non-scaling-stroke;fill:none;stroke:#ff0000;stroke-width:1;stroke-dasharray:none;-inkscape-stroke:hairline;stroke-opacity:1"
       id="path15" />
    <path
       d="m -60.00047,1382.3758 v -9.4488 h 37.79525 v 9.4488 z"
       style="vector-effect:non-scaling-stroke;fill:none;stroke:#ff0000;stroke-width:1;stroke-dasharray:none;-inkscape-stroke:hairline;stroke-opacity:1"
       id="path5-1" />
    <path
       d="m -379.05559,1382.3758 v -9.4488 h 37.79528 v 9.4488 z"
       style="vector-effect:non-scaling-stroke;fill:none;stroke:#ff0000;stroke-width:1;stroke-dasharray:none;-inkscape-stroke:hairline;stroke-opacity:1"
       id="path6-3" />
    <path
       d="m -698.11071,1382.3758 v -9.4488 h 37.79528 v 9.4488 z"
       style="vector-effect:non-scaling-stroke;fill:none;stroke:#ff0000;stroke-width:1;stroke-dasharray:none;-inkscape-stroke:hairline;stroke-opacity:1"
       id="path7-43" />
    <path
       d="m -1017.1658,1382.3758 v -9.4488 h 37.79525 v 9.4488 z"
       style="vector-effect:non-scaling-stroke;fill:none;stroke:#ff0000;stroke-width:1;stroke-dasharray:none;-inkscape-stroke:hairline;stroke-opacity:1"
       id="path8-7" />
    <path
       d="m -91.65355,1383.5097 h 9.44882 v 18.8976 h -9.44882 z"
       style="vector-effect:non-scaling-stroke;fill:none;stroke:#ff0000;stroke-width:1;stroke-dasharray:none;-inkscape-stroke:hairline;stroke-opacity:1"
       id="path9-7" />
    <path
       d="m -264.75591,1383.5097 h 9.44882 v 18.8976 h -9.44882 z"
       style="vector-effect:non-scaling-stroke;fill:none;stroke:#ff0000;stroke-width:1;stroke-dasharray:none;-inkscape-stroke:hairline;stroke-opacity:1"
       id="path10-5" />
    <path
       d="m -437.85827,1383.5097 h 9.44882 v 18.8976 h -9.44882 z"
       style="vector-effect:non-scaling-stroke;fill:none;stroke:#ff0000;stroke-width:1;stroke-dasharray:none;-inkscape-stroke:hairline;stroke-opacity:1"
       id="path11-1" />
    <path
       d="m -610.96063,1383.5097 h 9.44882 v 18.8976 h -9.44882 z"
       style="vector-effect:non-scaling-stroke;fill:none;stroke:#ff0000;stroke-width:1;stroke-dasharray:none;-inkscape-stroke:hairline;stroke-opacity:1"
       id="path12-2" />
    <path
       d="m -784.063,1383.5097 h 9.44882 v 18.8976 h -9.44882 z"
       style="vector-effect:non-scaling-stroke;fill:none;stroke:#ff0000;stroke-width:1;stroke-dasharray:none;-inkscape-stroke:hairline;stroke-opacity:1"
       id="path13-6" />
    <path
       d="m -957.16536,1383.5097 h 9.44882 v 18.8976 h -9.44882 z"
       style="vector-effect:non-scaling-stroke;fill:none;stroke:#ff0000;stroke-width:1;stroke-dasharray:none;-inkscape-stroke:hairline;stroke-opacity:1"
       id="path14-6" />
    <path
       d="m -9.2e-4,1367.2577 a 3.779528,3.779528 0 0 0 -3.7795,-3.7795 H -1035.5915 a 3.779528,3.779528 0 0 0 -3.7795,3.7795 v 33.2598 a 3.779528,3.779528 0 0 0 3.7795,3.7796 h 52.19532 a 18.897638,18.897638 0 0 1 13.11448,5.2913 18.897638,18.897638 0 0 0 13.11447,5.2913 h 874.9625 a 18.897638,18.897638 0 0 0 13.11447,-5.2913 18.897638,18.897638 0 0 1 13.11447,-5.2913 h 52.19537 a 3.779528,3.779528 0 0 0 3.7795,-3.7796 z"
       style="vector-effect:non-scaling-stroke;fill:none;stroke:#ff0000;stroke-width:1;stroke-dasharray:none;-inkscape-stroke:hairline;stroke-opacity:1"
       id="path15-5" />
    <path
       id="path5-48-1"
       style="vector-effect:non-scaling-stroke;fill:none;stroke:#ff0000;stroke-width:1;stroke-dasharray:none;-inkscape-stroke:hairline;stroke-opacity:1"
       d="m -890.92658,1423.0037 h -137.19692 v 12.4724 h -9.4488 v 18.8976 h 9.4488 v 10.5827 h 37.79535 v -9.4488 h 61.60627 v 9.4488 h 37.7953 v -10.5827 h 9.4488 v -18.8976 h -9.4488 z m 633.8268,31.37 h 9.4488 v 10.5827 h 37.7953 v -9.4488 h 61.6063 v 9.4488 h 37.7953 v -10.5827 h 9.4488 v -18.8976 h -9.4488 v -12.4724 h -137.1969 v 12.4724 h -9.4488 m -156.0945,18.8976 h 9.4488 v 10.5827 h 37.7953 v -9.4488 h 61.6063 v 9.4488 h 37.7953 v -10.5827 h 9.4488 v -18.8976 h -9.4488 v -12.4724 h -137.1969 v 12.4724 h -9.4488 m -156.0945,18.8976 h 9.4488 v 10.5827 h 37.7953 v -9.4488 h 61.6063 v 9.4488 h 37.7953 v -10.5827 h 9.4488 v -18.8976 h -9.4488 v -12.4724 h -137.1969 v 12.4724 h -9.4488 m -156.0945,18.8976 h 9.4488 v 10.5827 h 37.7953 v -9.4488 h 61.6063 v 9.4488 h 37.7953 v -10.5827 h 9.4488 v -18.8976 h -9.4488 v -12.4724 h -137.1969 v 12.4724 h -9.4488 m -156.0945,18.8976 h 9.4488 v 10.5827 h 37.7953 v -9.4488 h 61.6063 v 9.4488 h 37.7953 v -10.5827 h 9.4488 v -18.8976 h -9.4488 v -12.4724 h -137.1969 v 12.4724 h -9.4488" />
    <path
       d="m -66.58663,1441.0637 a 7.559055,7.559055 0 0 0 -15.1181,0 7.559055,7.559055 0 0 0 15.1181,0 z"
       style="vector-effect:non-scaling-stroke;fill:none;stroke:#ff0000;stroke-width:1;stroke-dasharray:none;-inkscape-stroke:hairline;stroke-opacity:1"
       id="path5-5" />
    <path
       d="m -55.24803,1441.0637 a 18.89765,18.89765 0 0 0 -37.7953,0 18.89765,18.89765 0 0 0 37.7953,0 z"
       style="vector-effect:non-scaling-stroke;fill:none;stroke:#ff0000;stroke-width:1;stroke-dasharray:none;-inkscape-stroke:hairline;stroke-opacity:1"
       id="path6-0" />
    <path
       d="m -18.759593,1441.0637 a 7.559055,7.559055 0 0 0 -15.1181,0 7.559055,7.559055 0 0 0 15.1181,0 z"
       style="vector-effect:non-scaling-stroke;fill:none;stroke:#ff0000;stroke-width:1;stroke-dasharray:none;-inkscape-stroke:hairline;stroke-opacity:1"
       id="path5-65" />
    <path
       d="m -7.4209935,1441.0637 a 18.89765,18.89765 0 0 0 -37.7952995,0 18.89765,18.89765 0 0 0 37.7952995,0 z"
       style="vector-effect:non-scaling-stroke;fill:none;stroke:#ff0000;stroke-width:1;stroke-dasharray:none;-inkscape-stroke:hairline;stroke-opacity:1"
       id="path6-31" />
    <path
       d="m -1012.9134,1224.9606 a 7.559055,7.559055 0 0 0 -15.1181,0 7.559055,7.559055 0 0 0 15.1181,0 z"
       style="vector-effect:non-scaling-stroke;fill:none;stroke:#ff0000;stroke-width:1;stroke-linecap:round;stroke-linejoin:round;stroke-dasharray:none;stroke-opacity:1;-inkscape-stroke:hairline;shape-rendering:crispEdges"
       id="path5" />
    <path
       d="m -11.338583,1224.9606 a 7.559055,7.559055 0 0 0 -15.11811,0 7.559055,7.559055 0 0 0 15.11811,0 z"
       style="vector-effect:non-scaling-stroke;fill:none;stroke:#ff0000;stroke-width:1;stroke-linecap:round;stroke-linejoin:round;stroke-dasharray:none;stroke-opacity:1;-inkscape-stroke:hairline;shape-rendering:crispEdges"
       id="path6" />
    <path
       d="m -947.71747,1145.9684 v 37.7953 h -9.44883 v -37.7953 h -22.2042 v -9.4487 h -37.7953 v 9.4487 h -22.2043 v 137.1968 h 22.2043 v 9.4488 h 37.7953 v -9.4488 h 22.2042 V 1245.37 h 9.44883 v 37.7952 h 163.65354 V 1245.37 h 9.44882 v 37.7952 h 76.5044 v 9.4488 h 37.79528 v -9.4488 h 49.35386 V 1245.37 h 9.44882 v 37.7952 h 163.65354 V 1245.37 h 9.44882 v 37.7952 h 49.3548 v 9.4488 h 37.79528 v -9.4488 h 76.50347 V 1245.37 h 9.44882 v 37.7952 H -91.654483 V 1245.37 h 9.44882 v 37.7952 h 22.20519 v 9.4488 h 37.795279 v -9.4488 H 0 v -137.1968 h -22.205194 v -9.4487 h -37.795279 v 9.4487 h -22.20519 v 37.7953 h -9.44882 v -37.7953 H -255.30802 v 37.7953 h -9.44882 v -37.7953 h -76.50347 v -9.4487 h -37.79528 v 9.4487 h -49.3548 v 37.7953 h -9.44882 v -37.7953 h -163.65354 v 37.7953 h -9.44882 v -37.7953 h -49.35386 v -9.4487 h -37.79528 v 9.4487 h -76.5044 v 37.7953 h -9.44882 v -37.7953 z"
       style="vector-effect:non-scaling-stroke;fill:none;stroke:#ff0000;stroke-width:1;stroke-linecap:round;stroke-linejoin:round;stroke-dasharray:none;stroke-opacity:1;-inkscape-stroke:hairline;shape-rendering:crispEdges"
       id="path7" />
    <circle
       cx="-553.73859"
       cy="1215.0242"
       id="circle2"
       style="vector-effect:non-scaling-stroke;fill:none;stroke:#ff0000;stroke-width:0.533329;stroke-dasharray:none;stroke-opacity:1;-inkscape-stroke:hairline;shape-rendering:crispEdges"
       r="7.5590553" />
  </g>
</svg>
